<svg xmlns="http://www.w3.org/2000/svg" version="1.1" xmlns:xlink="http://www.w3.org/1999/xlink" xmlns:svgjs="http://svgjs.dev/svgjs" width="1500" height="1500" viewBox="0 0 1500 1500"><rect width="1500" height="1500" fill="#ffffff"></rect><g transform="matrix(0.6666666666666666,0,0,0.6666666666666666,249.39393939393955,651.940297089279)"><svg viewBox="0 0 396 78" data-background-color="#ffffff" preserveAspectRatio="xMidYMid meet" height="295" width="1500" xmlns="http://www.w3.org/2000/svg" xmlns:xlink="http://www.w3.org/1999/xlink"><g id="tight-bounds" transform="matrix(1,0,0,1,0.23999999999992383,-0.10852460829033816)"><svg viewBox="0 0 395.5199999999999 78.2170492165807" height="78.2170492165807" width="395.5199999999999"><g><svg viewBox="0 0 578.5706527923709 114.41668998971002" height="78.2170492165807" width="395.5199999999999"><g><rect width="7.466147019751172" height="99.34879015025471" x="156.03961828636017" y="7.533949919727654" fill="#6b7280" opacity="1" stroke-width="0" stroke="transparent" fill-opacity="1" class="rect-qz-0" data-fill-palette-color="primary" rx="1%" id="qz-0" data-palette-color="#6b7280"></rect></g><g transform="matrix(1,0,0,1,183.05065279237095,15.813015765582215)"><svg viewBox="0 0 395.52 82.7906584585456" height="82.7906584585456" width="395.52"><g id="textblocktransform"><svg viewBox="0 0 395.52 82.7906584585456" height="82.7906584585456" width="395.52" id="textblock"><g><svg viewBox="0 0 395.52 82.7906584585456" height="82.7906584585456" width="395.52"><g transform="matrix(1,0,0,1,0,0)"><svg width="395.52" viewBox="2.1 -36.5 227.78 47.68571428571428" height="82.7906584585456" data-palette-color="#6b7280"><path d="M2.1-18L2.1-18Q2.1-21.25 3.23-24.38 4.35-27.5 6.5-30.08 8.65-32.65 11.8-34.18 14.95-35.7 18.95-35.7L18.95-35.7Q23.7-35.7 27.08-33.52 30.45-31.35 32.05-27.95L32.05-27.95 29.3-26.25Q28.15-28.6 26.4-29.98 24.65-31.35 22.68-31.95 20.7-32.55 18.75-32.55L18.75-32.55Q15.55-32.55 13.1-31.28 10.65-30 8.97-27.88 7.3-25.75 6.45-23.13 5.6-20.5 5.6-17.8L5.6-17.8Q5.6-14.85 6.6-12.15 7.6-9.45 9.4-7.38 11.2-5.3 13.63-4.08 16.05-2.85 18.9-2.85L18.9-2.85Q20.9-2.85 23-3.55 25.1-4.25 26.93-5.7 28.75-7.15 29.85-9.45L29.85-9.45 32.75-7.95Q31.65-5.3 29.35-3.45 27.05-1.6 24.23-0.65 21.4 0.3 18.7 0.3L18.7 0.3Q15.05 0.3 12-1.28 8.95-2.85 6.73-5.48 4.5-8.1 3.3-11.38 2.1-14.65 2.1-18ZM51.05-26.15L51.05-23.05Q47.65-22.95 45.07-21.15 42.5-19.35 41.45-16.2L41.45-16.2 41.45 0 38.05 0 38.05-26.05 41.25-26.05 41.25-19.8Q42.6-22.55 44.82-24.25 47.05-25.95 49.55-26.15L49.55-26.15Q50.05-26.2 50.42-26.2 50.8-26.2 51.05-26.15L51.05-26.15ZM65.9 0.5L65.9 0.5Q63.1 0.5 60.72-0.58 58.35-1.65 56.62-3.53 54.9-5.4 53.95-7.83 53-10.25 53-12.95L53-12.95Q53-15.75 53.95-18.18 54.9-20.6 56.65-22.48 58.4-24.35 60.77-25.43 63.15-26.5 65.95-26.5L65.95-26.5Q68.75-26.5 71.1-25.43 73.45-24.35 75.2-22.48 76.95-20.6 77.9-18.18 78.85-15.75 78.85-12.95L78.85-12.95Q78.85-10.25 77.9-7.83 76.95-5.4 75.22-3.53 73.5-1.65 71.12-0.58 68.75 0.5 65.9 0.5ZM56.45-12.9L56.45-12.9Q56.45-10 57.72-7.63 59-5.25 61.15-3.88 63.3-2.5 65.9-2.5L65.9-2.5Q68.5-2.5 70.65-3.9 72.8-5.3 74.1-7.73 75.4-10.15 75.4-13L75.4-13Q75.4-15.9 74.1-18.3 72.8-20.7 70.65-22.1 68.5-23.5 65.9-23.5L65.9-23.5Q63.3-23.5 61.17-22.05 59.05-20.6 57.75-18.23 56.45-15.85 56.45-12.9ZM93.09 0.5L93.09 0.5Q89.89 0.5 87.14-0.55 84.39-1.6 82.39-3.75L82.39-3.75 83.79-6.15Q85.99-4.1 88.22-3.18 90.44-2.25 92.94-2.25L92.94-2.25Q95.99-2.25 97.89-3.48 99.79-4.7 99.79-7L99.79-7Q99.79-8.55 98.87-9.38 97.94-10.2 96.22-10.73 94.49-11.25 92.09-11.85L92.09-11.85Q89.39-12.6 87.57-13.43 85.74-14.25 84.82-15.53 83.89-16.8 83.89-18.85L83.89-18.85Q83.89-21.4 85.17-23.08 86.44-24.75 88.67-25.63 90.89-26.5 93.64-26.5L93.64-26.5Q96.64-26.5 98.94-25.55 101.24-24.6 102.69-22.9L102.69-22.9 101.04-20.6Q99.64-22.2 97.72-22.98 95.79-23.75 93.44-23.75L93.44-23.75Q91.84-23.75 90.39-23.33 88.94-22.9 88.02-21.93 87.09-20.95 87.09-19.25L87.09-19.25Q87.09-17.85 87.79-17.07 88.49-16.3 89.89-15.78 91.29-15.25 93.34-14.65L93.34-14.65Q96.29-13.85 98.49-13.03 100.69-12.2 101.89-10.9 103.09-9.6 103.09-7.25L103.09-7.25Q103.09-3.6 100.34-1.55 97.59 0.5 93.09 0.5ZM117.24 0.5L117.24 0.5Q114.04 0.5 111.29-0.55 108.54-1.6 106.54-3.75L106.54-3.75 107.94-6.15Q110.14-4.1 112.37-3.18 114.59-2.25 117.09-2.25L117.09-2.25Q120.14-2.25 122.04-3.48 123.94-4.7 123.94-7L123.94-7Q123.94-8.55 123.02-9.38 122.09-10.2 120.37-10.73 118.64-11.25 116.24-11.85L116.24-11.85Q113.54-12.6 111.72-13.43 109.89-14.25 108.97-15.53 108.04-16.8 108.04-18.85L108.04-18.85Q108.04-21.4 109.32-23.08 110.59-24.75 112.82-25.63 115.04-26.5 117.79-26.5L117.79-26.5Q120.79-26.5 123.09-25.55 125.39-24.6 126.84-22.9L126.84-22.9 125.19-20.6Q123.79-22.2 121.87-22.98 119.94-23.75 117.59-23.75L117.59-23.75Q115.99-23.75 114.54-23.33 113.09-22.9 112.17-21.93 111.24-20.95 111.24-19.25L111.24-19.25Q111.24-17.85 111.94-17.07 112.64-16.3 114.04-15.78 115.44-15.25 117.49-14.65L117.49-14.65Q120.44-13.85 122.64-13.03 124.84-12.2 126.04-10.9 127.24-9.6 127.24-7.25L127.24-7.25Q127.24-3.6 124.49-1.55 121.74 0.5 117.24 0.5ZM143.94-18L143.94-18Q143.94-21.25 145.06-24.38 146.19-27.5 148.34-30.08 150.49-32.65 153.64-34.18 156.79-35.7 160.79-35.7L160.79-35.7Q165.54-35.7 168.91-33.52 172.29-31.35 173.89-27.95L173.89-27.95 171.14-26.25Q169.99-28.6 168.24-29.98 166.49-31.35 164.51-31.95 162.54-32.55 160.59-32.55L160.59-32.55Q157.39-32.55 154.94-31.28 152.49-30 150.81-27.88 149.14-25.75 148.29-23.13 147.44-20.5 147.44-17.8L147.44-17.8Q147.44-14.85 148.44-12.15 149.44-9.45 151.24-7.38 153.04-5.3 155.46-4.08 157.89-2.85 160.74-2.85L160.74-2.85Q162.74-2.85 164.84-3.55 166.94-4.25 168.76-5.7 170.59-7.15 171.69-9.45L171.69-9.45 174.59-7.95Q173.49-5.3 171.19-3.45 168.89-1.6 166.06-0.65 163.24 0.3 160.54 0.3L160.54 0.3Q156.89 0.3 153.84-1.28 150.79-2.85 148.56-5.48 146.34-8.1 145.14-11.38 143.94-14.65 143.94-18ZM183.28 0L179.88 0 179.88-26.05 183.28-26.05 183.28 0ZM183.28-31.5L179.88-31.5 179.88-36.5 183.28-36.5 183.28-31.5ZM202.38-4L203.28-1.25Q202.88-1.1 202.03-0.7 201.18-0.3 199.98 0 198.78 0.3 197.38 0.3L197.38 0.3Q195.93 0.3 194.66-0.25 193.38-0.8 192.63-1.93 191.88-3.05 191.88-4.7L191.88-4.7 191.88-23.35 188.28-23.35 188.28-26.05 191.88-26.05 191.88-34.85 195.28-34.85 195.28-26.05 201.28-26.05 201.28-23.35 195.28-23.35 195.28-5.65Q195.38-4.25 196.31-3.55 197.23-2.85 198.43-2.85L198.43-2.85Q199.83-2.85 200.98-3.33 202.13-3.8 202.38-4L202.38-4ZM209.03 11.05L209.03 8Q209.73 8.05 210.38 8.08 211.03 8.1 211.33 8L211.33 8Q211.93 7.9 212.48 7.3 213.03 6.7 213.78 5 214.53 3.3 215.88 0L215.88 0 204.53-26.05 208.13-26.05 217.68-3.5 226.48-26.05 229.88-26.05 216.38 7.55Q216.03 8.5 215.33 9.33 214.63 10.15 213.6 10.63 212.58 11.1 211.08 11.15L211.08 11.15Q210.63 11.2 210.15 11.18 209.68 11.15 209.03 11.05L209.03 11.05Z" opacity="1" transform="matrix(1,0,0,1,0,0)" fill="#6b7280" class="wordmark-text-0" data-fill-palette-color="primary" id="text-0"></path></svg></g></svg></g></svg></g></svg></g><g><svg viewBox="0 0 136.49473080010054 114.41668998971002" height="114.41668998971002" width="136.49473080010054"><g><svg xmlns="http://www.w3.org/2000/svg" xmlns:xlink="http://www.w3.org/1999/xlink" version="1.1" x="0" y="0" viewBox="0.099 15.258 99.901 83.742" enable-background="new 0 0 100 100" xml:space="preserve" height="114.41668998971002" width="136.49473080010054" class="icon-icon-0" data-fill-palette-color="accent" id="icon-0"><g fill="#000000" data-fill-palette-color="accent"><path d="M93.473 19.808l-0.121-2.229 1.252-0.06C97.301 17.374 99 17.294 100 17.266v-2.008c0 0-87.968 3.084-87.968 18.785 0 15.699 33.588 33.737 33.433 42.737C45.249 89.027 11.313 95 0.099 99h44.515c1.339-1 2.815-1.641 4.516-2.619l0.966-0.463 1.113 1.98-0.968 0.396C49.727 98.589 49.239 99 48.765 99h31.332c0 0 15.591-8.984 15.233-22.398-0.448-16.711-55.191-33.709-54.953-42.424C40.629 25.006 100 21.984 100 21.984V19.5c-1 0.032-2.707 0.109-5.276 0.248L93.473 19.808zM28.988 42.236l-0.646-0.91c-2.03-2.86-3.017-5.472-3.017-7.985 0-1.406 0.7-2.729 2.082-3.934l0.841-0.734 1.467 1.682-0.841 0.733c-0.874 0.762-1.316 1.52-1.316 2.252 0 2.006 0.876 4.258 2.605 6.694l0.646 0.91L28.988 42.236zM67.396 88.024c-2.809 2.599-6.474 4.67-9.985 6.57l-0.982 0.53-1.061-1.964 0.981-0.53c3.388-1.831 6.913-3.822 9.532-6.245l0.818-0.758 1.516 1.638L67.396 88.024zM66.639 68.916l0.845 0.729c3.519 3.043 5.088 5.313 5.088 7.36-0.022 1.326-0.192 2.546-0.503 3.689l-0.292 1.077-2.154-0.586 0.293-1.077c0.262-0.965 0.404-2 0.423-3.077 0.001-0.911-0.748-2.613-4.314-5.698l-0.844-0.729L66.639 68.916zM50.316 57.262l3.842 2.643c2.381 1.631 4.629 3.173 6.736 4.675l0.908 0.648-1.297 1.817-0.908-0.647c-2.09-1.491-4.33-3.026-6.701-4.652L49.05 59.1 50.316 57.262zM44.557 53.175l0.901 0.66-1.318 1.801-0.901-0.658c-3.781-2.765-6.799-5.194-9.227-7.426l-0.822-0.755 1.511-1.644 0.821 0.755C37.888 48.083 40.843 50.46 44.557 53.175zM47.013 24.865c-4.467 0.867-8.243 1.812-11.223 2.809l-1.059 0.354-0.708-2.116 1.059-0.354c3.072-1.028 6.943-1.998 11.506-2.884l1.095-0.212 0.425 2.191L47.013 24.865zM66.637 21.999c-4.145 0.461-8.042 0.964-11.582 1.495l-1.104 0.166-0.332-2.207 1.104-0.166c3.567-0.536 7.493-1.042 11.667-1.506l1.109-0.124 0.246 2.219L66.637 21.999zM86.441 20.248c-4 0.276-7.924 0.588-11.664 0.93l-1.111 0.102-0.202-2.223 1.111-0.102c3.756-0.343 7.696-0.657 11.713-0.934l1.112-0.077 0.154 2.227L86.441 20.248z" fill="#000000" data-fill-palette-color="accent"></path></g></svg></g></svg></g></svg></g><defs></defs></svg><rect width="395.5199999999999" height="78.2170492165807" fill="none" stroke="none" visibility="hidden"></rect></g></svg></g></svg>